<?xml version="1.0" encoding="UTF-8"?><svg id="Layer_2" xmlns="http://www.w3.org/2000/svg" viewBox="0 0 183.22 160.78"><defs><style>.cls-1{fill:#fff;}</style></defs><g id="Layer_1-2"><path class="cls-1" d="M129.78,110.08v18.46h15.4c-.91,3.46-3.41,6.19-7.51,8.19-4.1,2-9.23,3-15.4,3-8.24,0-14.66-2.08-19.25-6.26-4.59-4.17-6.89-10.02-6.89-17.56s2.33-13.4,6.99-17.82c4.66-4.42,10.85-6.63,18.57-6.63,4.61,0,8.55.85,11.81,2.54,3.26,1.69,5.88,4.27,7.86,7.73h40.63c-1.42-9.65-7.53-17.19-18.31-22.61-5.61-2.82-12.2-4.9-19.74-6.25,6.85-7.19,10.28-16.85,10.28-28.99,0-14.31-4.75-25.2-14.25-32.67C130.48,3.74,116.66,0,98.53,0h-56.06v32.67h34v-11h3.46l13.28.04c8.71,0,14.99,1.67,18.83,5,3.84,3.33,5.76,8.76,5.76,16.29s-1.9,13.02-5.71,16.35c-3.8,3.33-10.1,5-18.89,5h-50.73v23.24h23.95c-6.75,7.18-10.15,16.62-10.15,28.34,0,14.8,5.41,25.98,16.24,33.54,10.83,7.55,26.87,11.33,48.14,11.33,10.09,0,18.51-.79,25.27-2.36,6.75-1.58,12.28-4.06,16.6-7.44l4.01,7.55h16.69v-48.44h-53.44Z"/><path class="cls-1" d="M79.98,51c0-3.86-1.22-6.79-3.65-8.78-2.43-1.99-6.01-2.99-10.73-2.99-4.45,0-7.88.88-10.31,2.65-1.84,1.34-2.98,3.11-3.43,5.29-.16-2.47-.81-4.32-1.97-5.54-1.34-1.41-3.45-2.12-6.32-2.12-1.46,0-2.82.19-4.09.57-1.26.38-2.48.97-3.66,1.76v-7.67h-8.75v.2H0v6.21h9.15v18.28h9.8v-18.28h8.13v18.28h8.75v-9.29c0-1.05.37-1.87,1.1-2.47.74-.6,1.75-.89,3.04-.89,1.17,0,2,.27,2.47.81.47.54.71,1.51.71,2.91v8.93h8.75v-7.11c.47,2.1,1.6,3.81,3.39,5.11,2.43,1.77,5.86,2.65,10.31,2.65,4,0,7.2-.55,9.61-1.64,2.4-1.09,3.94-2.69,4.6-4.8h-9.52c-.31.49-.82.86-1.52,1.11-.71.25-1.59.38-2.65.38-1.61,0-2.86-.28-3.75-.84-.89-.56-1.33-1.36-1.33-2.38h18.95v-.33ZM60.59,47.28c.23-1.07.81-1.89,1.75-2.45.94-.56,2.19-.84,3.74-.84,1.44,0,2.58.29,3.44.86.86.57,1.34,1.39,1.47,2.43h-10.4Z"/></g></svg>